<svg width="110" height="110" viewBox="0 0 110 110" fill="none" xmlns="http://www.w3.org/2000/svg">
<path d="M83.1357 49.472H110C109.116 40.5725 106.075 32.281 101.487 25.1504C91.9247 29.7383 84.9599 38.6931 83.1357 49.472Z" fill="white"/>
<path d="M26.8643 49.472C25.0402 38.6931 18.0754 29.7383 8.51256 25.1504C3.92462 32.281 0.884422 40.5725 0 49.472H26.8643Z" fill="white"/>
<path d="M71.9698 49.4721C73.7386 35.1555 82.3618 22.9947 94.412 16.3063C85.5678 7.29624 73.7386 1.32639 60.5276 -0.000244141V49.4721H71.9698Z" fill="white"/>
<path d="M38.0301 49.4721H49.4723V-0.000244141C36.2613 1.32639 24.3768 7.29624 15.5879 16.3063C27.6381 22.9947 36.2613 35.1555 38.0301 49.4721Z" fill="white"/>
<path d="M71.9698 60.5273H60.5276V110C73.7386 108.673 85.6231 102.703 94.412 93.6932C82.3618 87.0047 73.7386 74.8439 71.9698 60.5273Z" fill="white"/>
<path d="M8.51256 84.8489C18.0201 80.261 25.0402 71.251 26.8643 60.5273H0C0.884422 69.4268 3.92462 77.7183 8.51256 84.8489Z" fill="white"/>
<path d="M83.1357 60.5273C84.9599 71.3062 91.9247 80.261 101.487 84.8489C106.075 77.7183 109.116 69.4268 110 60.5273H83.1357Z" fill="white"/>
<path d="M38.0301 60.5273C36.2613 74.8439 27.6381 87.0047 15.5879 93.6932C24.4321 102.703 36.2613 108.673 49.4723 110V60.5273H38.0301Z" fill="white"/>
</svg>
