<svg width="110" height="110" viewBox="0 0 110 110" fill="none" xmlns="http://www.w3.org/2000/svg">
<path d="M22.1144 22.1141C11.2204 33.0084 5.73541 46.8171 2.96343 57.7851L52.2157 107.029C63.1833 104.267 76.9917 98.7816 87.8856 87.8775C98.7796 76.9734 104.265 63.1745 107.037 52.2066L57.7843 2.97238C46.8167 5.73462 33.0083 11.2198 22.1144 22.1141ZM65.9627 38.55L71.4502 33.0771C72.1871 32.4085 73.1529 32.049 74.1476 32.0732C75.1423 32.0973 76.0896 32.5032 76.7932 33.2068C77.4968 33.9104 77.9027 34.8577 77.9269 35.8525C77.951 36.8472 77.5915 37.8131 76.9229 38.55L71.4502 44.0377L74.1902 46.7803C74.9169 47.507 75.3252 48.4927 75.3252 49.5204C75.3252 50.5482 74.9169 51.5338 74.1902 52.2606C73.4635 52.9873 72.4779 53.3956 71.4502 53.3956C70.4225 53.3956 69.4368 52.9873 68.7101 52.2606L65.9701 49.5204L60.4801 55.0007L63.2202 57.7409C63.9469 58.4676 64.3551 59.4533 64.3551 60.481C64.3551 61.5088 63.9469 62.4944 63.2202 63.2211C62.4935 63.9479 61.5078 64.3562 60.4801 64.3562C59.4524 64.3562 58.4668 63.9479 57.7401 63.2211L55 60.481L49.5199 65.9637L52.2599 68.7039C52.6198 69.0637 52.9052 69.4909 53.0999 69.9611C53.2947 70.4312 53.3949 70.9351 53.3949 71.444C53.3949 71.9529 53.2947 72.4568 53.0999 72.927C52.9052 73.3971 52.6198 73.8243 52.2599 74.1842C51.9001 74.544 51.4729 74.8295 51.0028 75.0242C50.5326 75.2189 50.0288 75.3192 49.5199 75.3192C49.011 75.3192 48.5071 75.2189 48.037 75.0242C47.5668 74.8295 47.1397 74.544 46.7798 74.1842L44.0373 71.4514L38.5498 76.9243C37.8129 77.5929 36.8471 77.9524 35.8524 77.9283C34.8577 77.9041 33.9104 77.4982 33.2068 76.7946C32.5032 76.091 32.0973 75.1437 32.0731 74.1489C32.049 73.1542 32.4085 72.1883 33.0771 71.4514L38.5498 65.9637L35.8098 63.2211C35.0831 62.4944 34.6748 61.5088 34.6748 60.481C34.6748 59.4533 35.0831 58.4676 35.8098 57.7409C36.5365 57.0141 37.5221 56.6059 38.5498 56.6059C39.5775 56.6059 40.5632 57.0141 41.2899 57.7409L44.0299 60.481L49.5199 55.0007L46.7798 52.2606C46.42 51.9007 46.1346 51.4735 45.9398 51.0034C45.7451 50.5332 45.6449 50.0293 45.6449 49.5204C45.6449 49.0115 45.7451 48.5076 45.9398 48.0375C46.1346 47.5673 46.42 47.1401 46.7798 46.7803C47.1397 46.4205 47.5668 46.135 48.037 45.9403C48.5071 45.7455 49.011 45.6453 49.5199 45.6453C50.0288 45.6453 50.5326 45.7455 51.0028 45.9403C51.4729 46.135 51.9001 46.4205 52.2599 46.7803L55 49.5204L60.4801 44.0377L57.7401 41.2976C57.0134 40.5708 56.6051 39.5852 56.6051 38.5574C56.6051 37.5297 57.0134 36.544 57.7401 35.8173C58.4668 35.0905 59.4524 34.6823 60.4801 34.6823C61.5078 34.6823 62.4935 35.0905 63.2202 35.8173L65.9627 38.55ZM109.155 41.1601C110.95 27.7712 110.138 11.6323 104.245 5.75181C98.3524 -0.128693 82.2263 -0.951227 68.8378 0.84116C68.2215 0.924641 67.5709 1.01794 66.8957 1.12352L108.88 43.1096C108.979 42.427 109.072 41.7763 109.155 41.1601ZM0.844548 68.8414C-0.950239 82.2303 -0.137551 98.3691 5.75505 104.25C9.86514 108.362 18.9913 110 28.6895 110C32.8603 109.993 37.026 109.712 41.1598 109.158C41.776 109.074 42.4267 108.981 43.1019 108.875L1.11708 66.8894C1.02133 67.5744 0.928027 68.2251 0.844548 68.8414Z" fill="white"/>
</svg>
