<svg width="110" height="110" viewBox="0 0 110 110" fill="none" xmlns="http://www.w3.org/2000/svg">
<path d="M55 0C24.6733 0 0 24.6733 0 55C0 85.3267 24.6733 110 55 110C85.3267 110 110 85.3267 110 55C110 24.6733 85.3267 0 55 0ZM92.8125 80.3846H80.8553C80.4848 80.3838 80.121 80.2856 79.8003 80.1C79.4797 79.9144 79.2134 79.6478 79.0281 79.3269L74.7603 72.0077C74.4794 71.5291 74.3977 70.9594 74.5329 70.4212L78.4623 54.5769C78.5411 54.2577 78.6933 53.9612 78.9067 53.711C79.1201 53.4609 79.389 53.2639 79.6918 53.1358L87.1221 49.9892C87.4852 49.8352 87.8841 49.7858 88.2738 49.8465C88.6635 49.9073 89.0284 50.0758 89.3274 50.3329L100.335 59.8046C100.607 60.0382 100.814 60.3369 100.939 60.6726C101.063 61.0084 101.1 61.3702 101.047 61.7243C100.135 67.9788 97.9499 73.9797 94.6264 79.356C94.4387 79.6695 94.1729 79.9291 93.855 80.1094C93.5371 80.2896 93.178 80.3845 92.8125 80.3846ZM22.8779 50.0103L30.3082 53.157C30.611 53.2851 30.8798 53.482 31.0933 53.7322C31.3067 53.9824 31.4589 54.2788 31.5377 54.5981L35.4671 70.4423C35.6023 70.9805 35.5206 71.5503 35.2397 72.0288L30.9719 79.3269C30.7866 79.6478 30.5203 79.9144 30.1997 80.1C29.879 80.2856 29.5152 80.3838 29.1447 80.3846H17.1875C16.8259 80.3848 16.4702 80.2924 16.1545 80.116C15.8388 79.9396 15.5735 79.6852 15.3841 79.3772C12.0607 74.0009 9.8756 67.9999 8.96394 61.7454C8.91034 61.3914 8.94748 61.0296 9.07189 60.6938C9.1963 60.358 9.4039 60.0594 9.67524 59.8257L20.6832 50.3541C20.9811 50.0989 21.3442 49.9316 21.7318 49.8709C22.1193 49.8102 22.5162 49.8585 22.8779 50.0103ZM90.8187 26.9421L86.0406 40.5281C85.9446 40.8058 85.7918 41.0604 85.5919 41.2757C85.3921 41.4911 85.1495 41.6624 84.8798 41.7788L77.0582 45.0921C76.6992 45.2439 76.3053 45.2937 75.9199 45.2358C75.5345 45.1779 75.1726 45.0147 74.874 44.7642L59.9976 32.2861C59.7599 32.0894 59.5681 31.8431 59.4356 31.5645C59.3031 31.2858 59.2332 30.9816 59.2308 30.6731V21.7937C59.231 21.4458 59.317 21.1034 59.4812 20.7966C59.6454 20.4899 59.8827 20.2284 60.1721 20.0353L71.4974 12.4887C71.7929 12.2914 72.1334 12.1718 72.4874 12.1408C72.8414 12.1099 73.1975 12.1686 73.5228 12.3115C80.0394 15.1537 85.8225 19.4438 90.4327 24.8558C90.6751 25.1387 90.8384 25.4807 90.9062 25.847C90.974 26.2134 90.9438 26.5911 90.8187 26.9421ZM38.5 12.4887L49.8279 20.0353C50.1173 20.2284 50.3546 20.4899 50.5188 20.7966C50.683 21.1034 50.769 21.4458 50.7692 21.7937V30.6731C50.7692 30.9821 50.7015 31.2874 50.5709 31.5674C50.4402 31.8474 50.2498 32.0954 50.013 32.294L35.1365 44.7721C34.838 45.0227 34.4761 45.1859 34.0907 45.2437C33.7052 45.3016 33.3113 45.2518 32.9524 45.1L25.1202 41.7788C24.8488 41.6639 24.6043 41.4935 24.4026 41.2786C24.2009 41.0636 24.0463 40.8089 23.9488 40.5308L19.1707 26.9447C19.0465 26.5925 19.0178 26.2137 19.0875 25.8468C19.1571 25.4799 19.3227 25.138 19.5673 24.8558C24.1802 19.4383 29.968 15.1445 36.4904 12.301C36.8145 12.1623 37.1681 12.1069 37.519 12.1397C37.87 12.1725 38.2072 12.2925 38.5 12.4887ZM43.0772 99.0767L37.8601 85.9375C37.7408 85.6388 37.6912 85.3169 37.715 84.9961C37.7388 84.6754 37.8355 84.3643 37.9976 84.0865L42.0089 77.2115C42.1941 76.8907 42.4604 76.6241 42.7811 76.4385C43.1018 76.2528 43.4655 76.1547 43.8361 76.1538H66.1639C66.5345 76.1547 66.8982 76.2528 67.2189 76.4385C67.5396 76.6241 67.8058 76.8907 67.9911 77.2115L72.005 84.0865C72.1676 84.3641 72.2647 84.6751 72.289 84.9958C72.3133 85.3166 72.2641 85.6386 72.1452 85.9375L66.9651 99.0714C66.8385 99.3925 66.6351 99.6777 66.3729 99.9022C66.1106 100.127 65.7974 100.284 65.4606 100.359C58.5868 101.937 51.4449 101.937 44.5712 100.359C44.2368 100.283 43.9261 100.126 43.6659 99.9023C43.4056 99.6789 43.2036 99.3956 43.0772 99.0767Z" fill="white"/>
</svg>
