<svg width="110" height="76" viewBox="0 0 110 76" fill="none" xmlns="http://www.w3.org/2000/svg">
<path d="M107.049 35.5311C102.188 14.9297 94.8726 3.93404 84.0209 0.930521C81.7398 0.303281 79.3737 -0.0100808 76.9965 0.000247193C73.8545 0.000247193 71.1181 0.717825 68.2235 1.47837C64.7354 2.39575 60.7729 3.43775 54.9953 3.43775C49.2177 3.43775 45.2528 2.3979 41.7579 1.48052C38.861 0.717825 36.1269 0.000247193 32.994 0.000247193C30.5359 -0.00774303 28.0885 0.304621 25.7221 0.928372C14.9278 3.919 7.61693 14.9104 2.68498 35.5182C-2.61824 57.6944 -0.00788518 71.6958 10.005 74.9442C11.3775 75.3977 12.8216 75.6316 14.2769 75.636C21.1362 75.636 26.6366 70.2799 30.3951 65.895C34.6418 60.9321 39.6127 58.4141 54.9953 58.4141C68.7346 58.4141 74.4206 60.1608 79.3319 65.895C82.4189 69.5001 85.3364 72.0223 88.247 73.61C92.1178 75.7198 95.9864 76.1881 99.7426 74.9786C105.66 73.0858 109.052 68.0821 109.827 60.1028C110.416 53.984 109.508 45.9467 107.049 35.5311ZM43.9946 34.3752H36.6609V41.2502C36.6609 42.1619 36.2746 43.0363 35.5869 43.6809C34.8992 44.3256 33.9665 44.6877 32.994 44.6877C32.0215 44.6877 31.0888 44.3256 30.4011 43.6809C29.7135 43.0363 29.3271 42.1619 29.3271 41.2502V34.3752H21.9934C21.0209 34.3752 20.0882 34.0131 19.4005 33.3684C18.7128 32.7238 18.3265 31.8494 18.3265 30.9377C18.3265 30.0261 18.7128 29.1517 19.4005 28.5071C20.0882 27.8624 21.0209 27.5002 21.9934 27.5002H29.3271V20.6252C29.3271 19.7136 29.7135 18.8392 30.4011 18.1946C31.0888 17.5499 32.0215 17.1877 32.994 17.1877C33.9665 17.1877 34.8992 17.5499 35.5869 18.1946C36.2746 18.8392 36.6609 19.7136 36.6609 20.6252V27.5002H43.9946C44.9672 27.5002 45.8998 27.8624 46.5875 28.5071C47.2752 29.1517 47.6615 30.0261 47.6615 30.9377C47.6615 31.8494 47.2752 32.7238 46.5875 33.3684C45.8998 34.0131 44.9672 34.3752 43.9946 34.3752ZM63.2458 35.2346C62.3392 35.2346 61.453 34.9826 60.6992 34.5105C59.9455 34.0383 59.358 33.3672 59.0111 32.5821C58.6641 31.7969 58.5734 30.933 58.7502 30.0995C58.9271 29.266 59.3636 28.5003 60.0047 27.8994C60.6457 27.2985 61.4624 26.8892 62.3515 26.7234C63.2407 26.5576 64.1623 26.6427 64.9998 26.968C65.8374 27.2932 66.5532 27.8439 67.0569 28.5505C67.5605 29.2571 67.8294 30.0879 67.8294 30.9377C67.8294 32.0773 67.3464 33.1703 66.4868 33.9761C65.6273 34.7819 64.4614 35.2346 63.2458 35.2346ZM73.3297 44.6877C72.4226 44.6877 71.536 44.4355 70.782 43.9628C70.028 43.4902 69.4405 42.8185 69.0939 42.0327C68.7473 41.2469 68.6572 40.3824 68.835 39.5486C69.0128 38.7148 69.4505 37.9492 70.0927 37.3487C70.7348 36.7482 71.5526 36.3398 72.4425 36.1753C73.3324 36.0107 74.2543 36.0973 75.0917 36.4242C75.929 36.751 76.6441 37.3034 77.1464 38.0115C77.6486 38.7195 77.9155 39.5513 77.9133 40.4016C77.9102 41.5394 77.426 42.6295 76.5667 43.433C75.7075 44.2365 74.5433 44.6877 73.3297 44.6877ZM73.3297 25.7815C72.4231 25.7815 71.5369 25.5295 70.7832 25.0573C70.0294 24.5852 69.4419 23.9141 69.095 23.129C68.748 22.3438 68.6573 21.4799 68.8342 20.6463C69.011 19.8128 69.4475 19.0472 70.0886 18.4463C70.7296 17.8453 71.5463 17.4361 72.4355 17.2703C73.3246 17.1045 74.2462 17.1896 75.0837 17.5148C75.9213 17.84 76.6371 18.3908 77.1408 19.0974C77.6444 19.804 77.9133 20.6348 77.9133 21.4846C77.9133 22.6242 77.4304 23.7172 76.5708 24.523C75.7112 25.3288 74.5453 25.7815 73.3297 25.7815ZM83.4136 35.2346C82.507 35.2346 81.6208 34.9826 80.8671 34.5105C80.1133 34.0383 79.5258 33.3672 79.1789 32.5821C78.832 31.7969 78.7412 30.933 78.9181 30.0995C79.0949 29.266 79.5315 28.5003 80.1725 27.8994C80.8135 27.2985 81.6302 26.8892 82.5194 26.7234C83.4085 26.5576 84.3301 26.6427 85.1676 26.968C86.0052 27.2932 86.721 27.8439 87.2247 28.5505C87.7284 29.2571 87.9972 30.0879 87.9972 30.9377C87.9972 32.0773 87.5143 33.1703 86.6547 33.9761C85.7951 34.7819 84.6292 35.2346 83.4136 35.2346Z" fill="white"/>
</svg>
