<svg width="10" height="11" viewBox="0 0 10 11" fill="none" xmlns="http://www.w3.org/2000/svg">
<path d="M1.15516 10.2998C0.963266 10.2995 0.774768 10.2558 0.60821 10.1729C0.233157 9.98812 0 9.62943 0 9.24003V1.35963C0 0.969143 0.233157 0.611536 0.60821 0.426754C0.778734 0.341547 0.972453 0.297729 1.16912 0.29988C1.36578 0.302031 1.55817 0.350073 1.72618 0.438983L9.47257 4.47048C9.63401 4.5585 9.7671 4.68072 9.85935 4.82568C9.9516 4.97065 10 5.13361 10 5.29928C10 5.46496 9.9516 5.62792 9.85935 5.77289C9.7671 5.91785 9.63401 6.04007 9.47257 6.12809L1.72493 10.1607C1.553 10.251 1.35607 10.2991 1.15516 10.2998Z" fill="#FFCE00"/>
</svg>
