<svg width="33" height="34" viewBox="0 0 33 34" fill="none" xmlns="http://www.w3.org/2000/svg">
<path d="M16.2381 0C7.27332 0 0 7.5474 0 16.85C0 26.1526 7.27332 33.7 16.2381 33.7C25.2029 33.7 32.4762 26.1526 32.4762 16.85C32.4762 7.5474 25.2029 0 16.2381 0ZM15.7307 26.6792C15.3961 26.6792 15.0691 26.5762 14.7909 26.3834C14.5128 26.1905 14.296 25.9164 14.1679 25.5957C14.0399 25.2749 14.0064 24.922 14.0717 24.5815C14.137 24.2411 14.2981 23.9283 14.5346 23.6828C14.7712 23.4374 15.0726 23.2702 15.4007 23.2025C15.7288 23.1348 16.0689 23.1695 16.378 23.3024C16.687 23.4352 16.9512 23.6602 17.1371 23.9488C17.3229 24.2375 17.4221 24.5768 17.4221 24.924C17.4221 25.3895 17.2439 25.8359 16.9267 26.1651C16.6095 26.4943 16.1793 26.6792 15.7307 26.6792ZM18.5588 17.7276C17.1879 18.6824 16.9993 19.5574 16.9993 20.3604C16.9993 20.6863 16.8745 20.9988 16.6525 21.2292C16.4304 21.4596 16.1293 21.5891 15.8152 21.5891C15.5012 21.5891 15.2 21.4596 14.978 21.2292C14.756 20.9988 14.6312 20.6863 14.6312 20.3604C14.6312 18.4376 15.4837 16.9088 17.2378 15.6863C18.8683 14.5507 19.7902 13.831 19.7902 12.2487C19.7902 11.1728 19.1982 10.3557 17.9727 9.75106C17.6843 9.60889 17.0424 9.47023 16.2525 9.47988C15.2613 9.49305 14.4917 9.73878 13.8988 10.2337C12.7807 11.1675 12.686 12.1838 12.686 12.1987C12.6785 12.3601 12.6405 12.5183 12.574 12.6644C12.5076 12.8105 12.4141 12.9415 12.2989 13.0501C12.1836 13.1587 12.0489 13.2427 11.9024 13.2973C11.7558 13.3518 11.6004 13.3759 11.4449 13.3681C11.2894 13.3603 11.1369 13.3208 10.9961 13.2519C10.8554 13.183 10.729 13.086 10.6244 12.9664C10.5197 12.8468 10.4388 12.707 10.3862 12.5549C10.3337 12.4029 10.3105 12.2416 10.318 12.0802C10.3273 11.867 10.4702 9.94589 12.4128 8.32408C13.4201 7.48333 14.7014 7.04629 16.2186 7.02698C17.2927 7.01382 18.3017 7.2025 18.9859 7.53774C21.0334 8.5426 22.1582 10.2179 22.1582 12.2487C22.1582 15.2177 20.246 16.5507 18.5588 17.7276Z" fill="white"/>
</svg>
