<svg width="110" height="110" viewBox="0 0 110 110" fill="none" xmlns="http://www.w3.org/2000/svg">
<path d="M96.4682 7.43956C83.7004 -4.26163 60.3472 -1.91139 44.3601 12.7401C35.63 20.7409 30.6101 32.0921 30.501 40.0429C30.3919 47.9437 31.9196 59.4949 23.1349 67.5457L0 88.7478L7.74802 95.8486L30.8829 74.6464C39.6677 66.5956 52.2718 67.9957 60.8929 67.8957C69.5139 67.7957 81.9544 63.1952 90.6845 55.1944C106.617 40.5429 109.236 19.1407 96.4682 7.43956ZM46.2698 53.3942C37.9216 45.7435 40.5407 30.3419 52.0536 19.7908C63.5665 9.23974 80.3175 6.8395 88.7202 14.4903C97.0685 22.1411 94.4494 37.5426 82.9365 48.0937C71.4236 58.6448 54.6726 61.045 46.2698 53.3942Z" fill="white"/>
<path d="M88.1748 79.9969C91.0666 79.9969 93.8494 81.047 95.8682 82.9472C100.124 86.8476 100.124 93.1982 95.8682 97.0986C93.8494 98.9488 91.0666 99.9989 88.1748 99.9989C85.2829 99.9989 82.5002 98.9488 80.4813 97.0486C76.2254 93.1482 76.2254 86.7976 80.4813 82.8972C82.5002 81.047 85.2829 79.9969 88.1748 79.9969ZM88.1748 69.9958C82.6093 69.9958 76.9892 71.946 72.7333 75.8464C64.2214 83.6472 64.2214 96.2985 72.7333 104.149C76.9892 108.05 82.6093 110 88.1748 110C93.7402 110 99.3603 108.05 103.616 104.149C112.128 96.3485 112.128 83.6972 103.616 75.8464C99.3603 71.946 93.7402 69.9958 88.1748 69.9958Z" fill="white"/>
</svg>
