<svg width="110" height="110" viewBox="0 0 110 110" fill="none" xmlns="http://www.w3.org/2000/svg">
<path d="M22.0773 10.8071C8.72052 20.8974 0 36.8322 0 54.8623C0 62.9124 1.76618 70.5766 4.91219 77.5239L22.0773 67.5991V10.8071Z" fill="white"/>
<path d="M49.6739 51.6642V0C43.8234 0.606516 38.2489 2.09524 33.116 4.35589V61.2581L49.6739 51.6642Z" fill="white"/>
<path d="M55.1933 61.2031L10.4316 87.0076C13.7984 91.6392 17.8275 95.7746 22.4638 99.138L71.7513 70.7971L55.1933 61.2031Z" fill="white"/>
<path d="M60.7126 32.5864V51.6641L105.474 77.4686C107.792 72.3408 109.338 66.827 110 61.0376L60.7126 32.5864Z" fill="white"/>
<path d="M33.5022 105.589C40.1806 108.401 47.4661 110 55.1931 110C73.6276 110 89.9096 100.902 99.9548 87.0625L82.7897 77.1377L33.5022 105.589Z" fill="white"/>
<path d="M109.945 48.3008C106.909 22.7719 86.4327 2.53634 60.7126 0V19.8496L109.945 48.3008Z" fill="white"/>
</svg>
